<svg xmlns="http://www.w3.org/2000/svg" xmlns:xlink="http://www.w3.org/1999/xlink" viewBox="0,0,256,256" width="48px" height="48px"><g fill="none" fill-rule="nonzero" stroke="none" stroke-width="1" stroke-linecap="butt" stroke-linejoin="miter" stroke-miterlimit="10" stroke-dasharray="" stroke-dashoffset="0" font-family="none" font-weight="none" font-size="none" text-anchor="none" style="mix-blend-mode: normal"><g transform="scale(5.33333,5.33333)"><path d="M24,4c-5.514,0 -10,4.486 -10,10v4h4v-4c0,-3.309 2.691,-6 6,-6c3.309,0 6,2.691 6,6v4h4v-4c0,-5.514 -4.486,-10 -10,-10" fill="#e6e6e6"></path><path d="M37,44h-26c-2.209,0 -4,-1.791 -4,-4v-18c0,-2.209 1.791,-4 4,-4h26c2.209,0 4,1.791 4,4v18c0,2.209 -1.791,4 -4,4" fill="#8bc34a"></path><path d="M17,31c0,1.657 -1.343,3 -3,3c-1.657,0 -3,-1.343 -3,-3c0,-1.657 1.343,-3 3,-3c1.657,0 3,1.343 3,3M37,31c0,1.657 -1.343,3 -3,3c-1.657,0 -3,-1.343 -3,-3c0,-1.657 1.343,-3 3,-3c1.657,0 3,1.343 3,3M27,31c0,1.657 -1.343,3 -3,3c-1.657,0 -3,-1.343 -3,-3c0,-1.657 1.343,-3 3,-3c1.657,0 3,1.343 3,3" fill="#e6e6e6"></path></g></g></svg>